<svg xmlns="http://www.w3.org/2000/svg" viewBox="0 0 512 512">
  <defs>
    <linearGradient id="grad1" x1="0%" y1="0%" x2="100%" y2="100%">
      <stop offset="0%" style="stop-color:#0ea5e9;stop-opacity:1" />
      <stop offset="100%" style="stop-color:#7c3aed;stop-opacity:1" />
    </linearGradient>
    <filter id="shadow" x="-20%" y="-20%" width="140%" height="140%">
      <feDropShadow dx="2" dy="4" stdDeviation="6" flood-opacity="0.25"/>
    </filter>
  </defs>
  
  <g filter="url(#shadow)">
    <!-- Main Gear Body -->
    <path fill="url(#grad1)" d="M256,32C132.3,32,32,132.3,32,256s100.3,224,224,224s224-100.3,224-224S379.7,32,256,32z M256,432c-97.2,0-176-78.8-176-176S158.8,80,256,80s176,78.8,176,176S353.2,432,256,432z"/>
    
    <!-- Circuit Board Inner Details -->
    <path fill="#ffffff" d="M256,128c-70.7,0-128,57.3-128,128s57.3,128,128,128s128-57.3,128-128S326.7,128,256,128z M256,352c-53,0-96-43-96-96s43-96,96-96s96,43,96,96S309,352,256,352z"/>
    
    <!-- Central Hub/Core -->
    <circle cx="256" cy="256" r="48" fill="url(#grad1)"/>
    
    <!-- Circuit Lines extending from center -->
    <g stroke="url(#grad1)" stroke-width="14" stroke-linecap="round">
        <line x1="256" y1="96" x2="256" y2="64" />
        <line x1="256" y1="416" x2="256" y2="448" />
        <line x1="96" y1="256" x2="64" y2="256" />
        <line x1="416" y1="256" x2="448" y2="256" />
        
        <!-- Diagonals -->
        <line x1="142" y1="142" x2="120" y2="120" />
        <line x1="370" y1="142" x2="392" y2="120" />
        <line x1="142" y1="370" x2="120" y2="392" />
        <line x1="370" y1="370" x2="392" y2="392" />
    </g>
    
    <!-- Tech Dots -->
    <circle cx="256" cy="96" r="12" fill="#ffffff"/>
    <circle cx="256" cy="416" r="12" fill="#ffffff"/>
    <circle cx="96" cy="256" r="12" fill="#ffffff"/>
    <circle cx="416" cy="256" r="12" fill="#ffffff"/>
  </g>
</svg>